HIERARCHY
ROOT Hips
{
  OFFSET 0.000000 0.000000 0.000000
  CHANNELS 6 Xposition Yposition Zposition Xrotation Yrotation Zrotation
  JOINT Spine
  {
    OFFSET 0.762862 23.197727 -6.058858
    CHANNELS 3 Xrotation Yrotation Zrotation
    JOINT Chest
    {
      OFFSET 0.762862 23.197727 -6.058858
      CHANNELS 3 Xrotation Yrotation Zrotation
      JOINT Neck
      {
        OFFSET -0.270074 9.229822 -3.797407
        CHANNELS 3 Xrotation Yrotation Zrotation
        JOINT Head
        {
          OFFSET 0.225285 8.430608 -7.939136
          CHANNELS 3 Xrotation Yrotation Zrotation
          End Site
          {
            OFFSET 0.067585 2.529182 -2.381741
          }
        }
      }
      JOINT LeftShoulder
      {
        OFFSET 17.595006 0.044015 0.996102
        CHANNELS 3 Xrotation Yrotation Zrotation
        JOINT LeftArm
        {
          OFFSET 3.473531 -23.049457 3.982832
          CHANNELS 3 Xrotation Yrotation Zrotation
          JOINT LeftForeArm
          {
            OFFSET 3.218371 -22.980839 -10.241008
            CHANNELS 3 Xrotation Yrotation Zrotation
            JOINT LeftHand
            {
              OFFSET -0.008887 -5.924601 -2.989147
              CHANNELS 3 Xrotation Yrotation Zrotation
              End Site
              {
                OFFSET -0.002666 -1.777380 -0.896744
              }
            }
          }
        }
      }
      JOINT RightShoulder
      {
        OFFSET -17.595006 -0.044015 -0.996102
        CHANNELS 3 Xrotation Yrotation Zrotation
        JOINT RightArm
        {
          OFFSET -5.553442 -24.118242 6.751946
          CHANNELS 3 Xrotation Yrotation Zrotation
          JOINT RightForeArm
          {
            OFFSET -3.099014 -24.977112 -8.059516
            CHANNELS 3 Xrotation Yrotation Zrotation
            JOINT RightHand
            {
              OFFSET 0.298828 -5.701374 -2.573080
              CHANNELS 3 Xrotation Yrotation Zrotation
              End Site
              {
                OFFSET 0.089648 -1.710412 -0.771924
              }
            }
          }
        }
      }
    }
  }
  JOINT LeftUpLeg
  {
    OFFSET 11.990773 -0.614304 0.788698
    CHANNELS 3 Xrotation Yrotation Zrotation
    JOINT LeftLeg
    {
      OFFSET -5.144974 -41.347031 -0.530598
      CHANNELS 3 Xrotation Yrotation Zrotation
      JOINT LeftFoot
      {
        OFFSET 2.709190 -35.138144 18.775504
        CHANNELS 3 Xrotation Yrotation Zrotation
        End Site
        {
          OFFSET 0.812757 -10.541443 5.632651
        }
      }
    }
  }
  JOINT RightUpLeg
  {
    OFFSET -11.990773 0.614304 -0.788698
    CHANNELS 3 Xrotation Yrotation Zrotation
    JOINT RightLeg
    {
      OFFSET 0.284998 -37.357294 5.081156
      CHANNELS 3 Xrotation Yrotation Zrotation
      JOINT RightFoot
      {
        OFFSET 4.690763 -28.563407 28.545631
        CHANNELS 3 Xrotation Yrotation Zrotation
        End Site
        {
          OFFSET 1.407229 -8.569022 8.563689
        }
      }
    }
  }
}
MOTION
Frames: 21
Frame Time: 0.083333
0.000000 60.000000 0.000000 0.285476 0.021387 0.120223 -14.345612 -0.214342 -1.700611 -13.077989 -0.066353 -0.454624 1.019628 0.180996 0.228659 5.000000 0.000000 0.000000 0.231044 0.129908 0.565117 -0.461196 0.009041 -0.050243 -113.687570 14.743847 22.895425 0.000000 0.000000 0.000000 0.725345 -0.131334 0.132051 -0.370535 0.009425 -0.000790 -107.143336 -16.643754 -21.553180 0.000000 0.000000 0.000000 -2.466583 0.302253 -0.151881 1.038821 0.090555 0.021952 0.000000 0.000000 0.000000 -0.956645 0.113359 0.788435 8.380182 0.230807 -1.316804 0.000000 0.000000 0.000000
-0.996446 60.000000 -0.276369 0.358990 0.013591 0.100002 -14.271885 -0.215997 -1.721989 -13.055678 -0.070230 -0.480236 0.950964 0.159993 0.204334 5.000000 0.000000 0.000000 0.248185 0.132174 0.569899 -0.287922 0.015220 -0.052714 -113.652938 14.710788 22.857883 0.000000 0.000000 0.000000 0.742418 -0.128463 0.160802 -0.294997 0.009598 -0.007216 -107.121390 -16.611397 -21.510425 0.000000 0.000000 0.000000 -2.388325 0.291020 -0.152708 1.014258 0.076065 -0.003059 0.000000 0.000000 0.000000 -0.626817 0.123468 0.885285 8.064399 0.242027 -1.282914 0.000000 0.000000 0.000000
-2.629133 60.000000 -0.666327 1.211854 0.017409 0.228120 -13.419571 -0.187672 -1.596184 -12.146000 -0.027369 -0.203172 2.499763 0.404566 0.522047 5.000000 0.000000 0.000000 0.733054 0.398497 1.751557 -0.310201 0.068347 -0.172161 -113.412178 13.895408 21.714854 0.000000 0.000000 0.000000 2.173488 -0.362645 0.530548 -0.614120 0.027378 -0.038239 -106.333832 -16.198907 -21.221640 0.000000 0.000000 0.000000 -6.527909 0.789594 -0.450801 2.857660 0.164326 -0.109203 0.000000 0.000000 0.000000 -0.816037 0.377135 2.788237 21.979007 0.709573 -3.560387 0.000000 0.000000 0.000000
-3.449131 60.000000 -0.866614 2.135311 -0.017053 0.219008 -12.495468 -0.176547 -1.612285 -11.454859 -0.014269 -0.113014 3.183041 0.500609 0.655285 5.000000 0.000000 0.000000 1.141137 0.665836 3.059717 0.873996 0.196734 -0.371870 -113.306590 12.783743 20.042402 0.000000 0.000000 0.000000 3.342956 -0.540174 0.902761 -0.382693 0.037187 -0.086908 -105.693073 -15.667390 -20.661069 0.000000 0.000000 0.000000 -8.811356 1.048333 -0.744669 4.240912 0.087180 -0.483966 0.000000 0.000000 0.000000 0.975966 0.585998 4.552332 29.619947 1.048523 -4.978998 0.000000 0.000000 0.000000
-3.837260 60.000000 -1.177071 2.507267 -0.022733 0.249676 -12.123518 -0.168258 -1.582877 -11.200518 0.000246 0.005018 3.510999 0.622944 0.807314 5.000000 0.000000 0.000000 1.607621 0.930699 4.422376 2.581898 0.446238 -0.761653 -112.828964 11.553922 18.269659 0.000000 0.000000 0.000000 4.006820 -0.679966 0.971611 -0.105900 0.026111 -0.073411 -97.275182 -14.247568 -18.819861 0.000000 0.000000 0.000000 -9.197939 1.072947 -1.050063 5.204483 -0.101385 -1.038964 0.000000 0.000000 0.000000 2.001340 0.600876 4.962528 31.239513 1.059569 -5.435954 0.000000 0.000000 0.000000
-4.167594 60.000000 -1.668055 3.473210 -0.038643 0.328100 -11.157554 -0.147723 -1.507542 -10.490634 0.016246 0.146475 4.285942 0.773938 1.015177 5.000000 0.000000 0.000000 3.098510 1.248097 5.552331 6.148086 0.878208 -1.335769 -110.199520 10.475906 17.498965 0.000000 0.000000 0.000000 4.741390 -0.807436 1.164524 0.439653 -0.005107 -0.018574 -60.302971 -8.938457 -11.946573 0.000000 0.000000 0.000000 -9.320336 1.068162 -1.334280 5.630213 -0.343248 -1.618153 0.000000 0.000000 0.000000 3.095067 0.616637 5.484932 31.535013 0.999666 -5.628736 0.000000 0.000000 0.000000
-4.495794 60.000000 -2.224066 4.592905 -0.030038 0.546515 -10.038704 -0.113316 -1.289514 -9.677244 0.038327 0.361482 5.221383 1.069164 1.400421 5.000000 0.000000 0.000000 4.869179 1.638897 7.166615 9.801783 1.288241 -1.778500 -109.449941 10.115810 17.164926 0.000000 0.000000 0.000000 4.969891 -0.770209 1.550391 1.090210 -0.050009 0.068731 0.000000 0.000000 0.000000 0.000000 0.000000 0.000000 -8.578731 0.981545 -1.375804 4.673614 -0.526640 -1.818269 0.000000 0.000000 0.000000 3.756943 0.701172 6.556150 29.766097 0.772879 -5.481010 0.000000 0.000000 0.000000
-4.781167 60.000000 -2.617939 4.599382 0.094154 1.111603 -10.036204 -0.061744 -0.711349 -9.709469 0.087531 0.816152 5.400903 1.430673 1.830048 5.000000 0.000000 0.000000 5.841972 1.812719 7.942827 11.800211 1.554186 -2.056352 -109.126226 10.028082 17.131977 0.000000 0.000000 0.000000 4.520959 -0.520875 2.143641 1.006199 -0.088232 0.189556 0.000000 0.000000 0.000000 0.000000 0.000000 0.000000 -8.442744 0.965230 -1.391169 4.312697 -0.558632 -1.812869 0.000000 0.000000 0.000000 4.195101 0.760518 7.369851 29.435101 0.864306 -5.212971 0.000000 0.000000 0.000000
-5.130251 60.000000 -2.787535 4.371429 0.271932 1.873280 -10.269680 0.006726 0.069373 -9.960544 0.150771 1.379272 5.157525 1.737561 2.172741 5.000000 0.000000 0.000000 7.142035 1.902666 7.839071 11.894147 1.631105 -2.174409 -109.594291 10.157784 17.151593 0.000000 0.000000 0.000000 4.080748 -0.254356 2.799204 1.091438 -0.128147 0.302518 0.000000 0.000000 0.000000 0.000000 0.000000 0.000000 -8.655812 0.993656 -1.317031 6.333516 -0.338629 -1.743957 0.000000 0.000000 0.000000 4.485285 0.775717 7.691218 30.965808 1.566252 -4.466092 0.000000 0.000000 0.000000
-5.192196 60.000000 -2.319622 4.167607 0.407871 2.439359 -10.477664 0.059767 0.650448 -10.132931 0.188575 1.698449 5.065063 1.704907 2.128532 5.000000 0.000000 0.000000 6.564726 1.727766 6.723256 9.944246 1.349049 -1.869821 -112.333443 10.963509 17.357433 0.000000 0.000000 0.000000 3.953942 -0.121416 3.213607 0.765831 -0.147251 0.388406 0.000000 0.000000 0.000000 0.000000 0.000000 0.000000 -8.200432 0.964675 -0.889066 8.183407 -0.072365 -1.536606 0.000000 0.000000 0.000000 4.243011 0.795272 7.739648 29.547301 1.708059 -3.826487 0.000000 0.000000 0.000000
-4.947557 60.000000 -1.529512 3.904561 0.458161 2.598912 -10.742138 0.076801 0.816375 -10.317350 0.199203 1.762863 4.988923 1.735320 2.158888 5.000000 0.000000 0.000000 5.290918 1.396689 5.001106 6.860169 1.020281 -1.552994 -115.708885 13.988177 20.932197 0.000000 0.000000 0.000000 4.027442 -0.153493 3.159353 -0.202151 -0.147698 0.476461 0.000000 0.000000 0.000000 0.000000 0.000000 0.000000 -7.425401 0.934744 0.376133 6.661847 0.262472 -0.602574 0.000000 0.000000 0.000000 4.026955 0.841234 8.058703 28.466907 1.924604 -3.185760 0.000000 0.000000 0.000000
-4.709646 60.000000 -0.983216 3.598961 0.480972 2.623655 -11.048288 0.081724 0.844814 -10.518047 0.197878 1.716871 4.948576 1.547686 1.939219 5.000000 0.000000 0.000000 3.145190 0.983615 3.594032 3.164584 0.740773 -1.339020 -105.039154 13.532960 20.911915 0.000000 0.000000 0.000000 4.154710 -0.245629 2.915651 -1.449418 -0.130903 0.538472 0.000000 0.000000 0.000000 0.000000 0.000000 0.000000 -6.445582 0.911636 2.449431 1.342057 0.822331 1.306410 0.000000 0.000000 0.000000 3.456318 0.933447 8.562482 25.809187 1.925974 -2.550766 0.000000 0.000000 0.000000
-4.588111 60.000000 -0.914841 3.825692 0.475053 2.654155 -10.821488 0.082777 0.873902 -10.404273 0.193594 1.697822 4.930056 1.453202 1.828404 5.000000 0.000000 0.000000 1.901913 0.718202 2.801465 0.852067 0.542747 -1.127501 -64.493745 7.701113 12.296049 0.000000 0.000000 0.000000 4.000945 -0.294994 2.549942 -1.564470 -0.118920 0.511018 -8.730980 -1.574069 -1.899116 0.000000 0.000000 0.000000 -6.585403 0.996895 3.869758 -4.756024 0.833607 2.054589 0.000000 0.000000 0.000000 2.268111 1.094369 9.269876 21.594332 1.705933 -1.932007 0.000000 0.000000 0.000000
-4.394796 60.000000 -1.942596 4.340299 0.457954 2.706024 -10.306612 0.083733 0.922038 -10.022425 0.186594 1.698867 5.185535 1.401004 1.783810 5.000000 0.000000 0.000000 0.637119 0.484169 2.339235 -1.132449 0.371748 -0.920804 0.000000 0.000000 0.000000 0.000000 0.000000 0.000000 4.038421 -0.398919 2.165258 -0.949202 -0.139587 0.517930 -48.324096 -8.387717 -9.867375 0.000000 0.000000 0.000000 -6.713509 1.012884 3.767859 -3.263226 0.601303 1.502040 0.000000 0.000000 0.000000 1.255643 1.190138 9.441863 20.952953 1.710578 -1.785464 0.000000 0.000000 0.000000
-4.224435 60.000000 -3.169631 3.580825 0.551541 2.917203 -11.068560 0.113569 1.147021 -10.607686 0.204638 1.755821 4.643757 1.345945 1.688871 5.000000 0.000000 0.000000 0.239024 0.294257 1.520148 -2.992999 0.227518 -0.739249 -8.786059 1.404308 2.195273 0.000000 0.000000 0.000000 3.452738 -0.378890 1.666300 0.055532 -0.198497 0.603494 -114.678251 -18.719019 -21.254579 0.000000 0.000000 0.000000 -6.012798 0.890864 3.440393 1.931316 0.897697 1.477250 0.000000 0.000000 0.000000 1.281554 1.190292 9.461059 22.781307 2.054101 -1.660820 0.000000 0.000000 0.000000
-4.083084 60.000000 -3.848195 2.317685 0.723650 3.328186 -12.336288 0.171980 1.583558 -11.558900 0.239830 1.888498 3.839941 1.229749 1.509481 5.000000 0.000000 0.000000 -0.247255 0.191806 1.310452 -4.998648 0.062920 -0.508346 -48.056270 7.644090 12.007525 0.000000 0.000000 0.000000 2.972093 -0.510677 0.657853 1.834732 -0.340960 0.853518 -116.710331 -15.871317 -16.289903 0.000000 0.000000 0.000000 -4.436736 0.639179 2.999614 8.301409 1.327697 1.627731 0.000000 0.000000 0.000000 0.750112 1.206417 9.267100 23.711675 2.313521 -1.464154 0.000000 0.000000 0.000000
-3.905658 60.000000 -4.267194 1.944085 0.812737 3.599658 -12.712368 0.208140 1.867771 -11.851146 0.265566 2.041940 3.681646 1.125232 1.382346 5.000000 0.000000 0.000000 -0.220202 0.189679 1.274739 -4.537832 -0.029852 -0.240316 -103.821238 16.428664 25.941749 0.000000 0.000000 0.000000 3.608986 -1.071672 -1.059093 4.177408 -0.549965 1.201313 -113.307998 -13.915695 -14.829234 0.000000 0.000000 0.000000 -2.359398 0.312160 2.331479 10.552460 1.684540 2.152778 0.000000 0.000000 0.000000 1.021494 1.168575 9.130781 23.711108 2.474679 -1.223306 0.000000 0.000000 0.000000
-3.782538 60.000000 -5.768176 2.216069 0.778085 3.528962 -12.439490 0.195635 1.791334 -11.728634 0.253695 1.968756 3.555588 1.095133 1.341749 5.000000 0.000000 0.000000 -0.406296 0.246656 1.739812 -3.707266 -0.083063 -0.048012 -73.096074 11.419600 18.185976 0.000000 0.000000 0.000000 5.035812 -1.677961 -2.317686 8.041487 -0.756969 1.357058 -110.039697 -13.623598 -15.598465 0.000000 0.000000 0.000000 -2.512570 0.329876 1.854771 8.126803 1.703729 2.461275 0.000000 0.000000 0.000000 1.044653 1.132641 8.857528 23.229699 3.351434 0.190438 0.000000 0.000000 0.000000
-3.737372 60.000000 -7.405064 2.858956 0.698226 3.367484 -11.794543 0.167412 1.616693 -11.326356 0.219371 1.763957 3.632339 1.041394 1.285138 5.000000 0.000000 0.000000 -0.722413 0.367978 2.669846 -3.035275 -0.080532 -0.008256 -48.940220 7.830097 11.821716 0.000000 0.000000 0.000000 5.281126 -1.848364 -2.847255 8.893455 -0.809564 1.401212 -100.091536 -13.337132 -16.123098 0.000000 0.000000 0.000000 -2.665719 0.344797 1.323868 6.318462 1.804531 2.864248 0.000000 0.000000 0.000000 1.320142 1.027105 8.167876 21.991818 4.572981 2.263348 0.000000 0.000000 0.000000
-3.604604 60.000000 -8.342720 3.290954 0.622980 3.161846 -11.360490 0.139440 1.400166 -10.984122 0.192385 1.596288 3.819412 1.102976 1.364428 5.000000 0.000000 0.000000 -0.537102 0.469364 3.105608 -2.767085 -0.058059 -0.044775 -114.303273 18.005553 27.498534 0.000000 0.000000 0.000000 5.254409 -1.797278 -2.649984 7.768731 -0.719985 1.289634 -61.984063 -8.987134 -11.249952 0.000000 0.000000 0.000000 -2.978151 0.379057 0.612396 5.182853 1.925386 3.218095 0.000000 0.000000 0.000000 1.465212 0.847285 6.787122 21.631187 5.121096 3.108079 0.000000 0.000000 0.000000
-3.342693 60.000000 -8.516817 3.445353 0.578919 3.012293 -11.204829 0.122104 1.244909 -10.844824 0.169772 1.428665 3.744966 1.004773 1.249629 5.000000 0.000000 0.000000 -0.263458 0.394766 2.481418 -2.670881 -0.074202 0.000222 -112.732947 16.742215 26.391572 0.000000 0.000000 0.000000 4.452253 -1.516851 -2.141224 5.361446 -0.555057 1.104411 0.000000 0.000000 0.000000 0.000000 0.000000 0.000000 -2.745306 0.345320 0.098109 3.297735 1.959758 3.438991 0.000000 0.000000 0.000000 1.693962 0.685032 5.536350 19.651287 6.116764 4.724700 0.000000 0.000000 0.000000
